<svg width="94" height="22" viewBox="0 0 94 22" fill="none" xmlns="http://www.w3.org/2000/svg">
<path d="M0.639205 7.19105V4.90909H11.3906V7.19105H7.38281V18H4.64702V7.19105H0.639205ZM24.1933 18V4.90909H29.358C30.3509 4.90909 31.1968 5.09872 31.8957 5.47798C32.5945 5.85298 33.1272 6.375 33.4937 7.04403C33.8644 7.70881 34.0498 8.47585 34.0498 9.34517C34.0498 10.2145 33.8623 10.9815 33.4873 11.6463C33.1123 12.3111 32.569 12.8288 31.8573 13.1996C31.1499 13.5703 30.2934 13.7557 29.2877 13.7557H25.9958V11.5376H28.8403C29.3729 11.5376 29.8119 11.446 30.157 11.2628C30.5065 11.0753 30.7664 10.8175 30.9369 10.4893C31.1116 10.157 31.1989 9.77557 31.1989 9.34517C31.1989 8.91051 31.1116 8.53125 30.9369 8.20739C30.7664 7.87926 30.5065 7.62571 30.157 7.44673C29.8076 7.26349 29.3644 7.17188 28.8275 7.17188H26.961V18H24.1933ZM36.7475 18V4.90909H39.5153V10.3104H45.1339V4.90909H47.8953V18H45.1339V12.5923H39.5153V18H36.7475ZM63.1071 11.4545C63.1071 12.8821 62.8365 14.0966 62.2953 15.098C61.7583 16.0994 61.0254 16.8643 60.0964 17.3928C59.1717 17.9169 58.1319 18.179 56.9771 18.179C55.8137 18.179 54.7697 17.9148 53.845 17.3864C52.9203 16.858 52.1895 16.093 51.6525 15.0916C51.1156 14.0902 50.8471 12.8778 50.8471 11.4545C50.8471 10.027 51.1156 8.8125 51.6525 7.81108C52.1895 6.80966 52.9203 6.04687 53.845 5.52273C54.7697 4.99432 55.8137 4.73011 56.9771 4.73011C58.1319 4.73011 59.1717 4.99432 60.0964 5.52273C61.0254 6.04687 61.7583 6.80966 62.2953 7.81108C62.8365 8.8125 63.1071 10.027 63.1071 11.4545ZM60.301 11.4545C60.301 10.5298 60.1625 9.75 59.8855 9.11506C59.6127 8.48011 59.2271 7.99858 58.7285 7.67045C58.2299 7.34233 57.6461 7.17827 56.9771 7.17827C56.3081 7.17827 55.7243 7.34233 55.2257 7.67045C54.7271 7.99858 54.3393 8.48011 54.0623 9.11506C53.7896 9.75 53.6532 10.5298 53.6532 11.4545C53.6532 12.3793 53.7896 13.1591 54.0623 13.794C54.3393 14.429 54.7271 14.9105 55.2257 15.2386C55.7243 15.5668 56.3081 15.7308 56.9771 15.7308C57.6461 15.7308 58.2299 15.5668 58.7285 15.2386C59.2271 14.9105 59.6127 14.429 59.8855 13.794C60.1625 13.1591 60.301 12.3793 60.301 11.4545ZM78.0871 11.4545C78.0871 12.8821 77.8166 14.0966 77.2754 15.098C76.7384 16.0994 76.0055 16.8643 75.0765 17.3928C74.1518 17.9169 73.112 18.179 71.9572 18.179C70.7938 18.179 69.7498 17.9148 68.8251 17.3864C67.9004 16.858 67.1695 16.093 66.6326 15.0916C66.0957 14.0902 65.8272 12.8778 65.8272 11.4545C65.8272 10.027 66.0957 8.8125 66.6326 7.81108C67.1695 6.80966 67.9004 6.04687 68.8251 5.52273C69.7498 4.99432 70.7938 4.73011 71.9572 4.73011C73.112 4.73011 74.1518 4.99432 75.0765 5.52273C76.0055 6.04687 76.7384 6.80966 77.2754 7.81108C77.8166 8.8125 78.0871 10.027 78.0871 11.4545ZM75.281 11.4545C75.281 10.5298 75.1425 9.75 74.8656 9.11506C74.5928 8.48011 74.2072 7.99858 73.7086 7.67045C73.21 7.34233 72.6262 7.17827 71.9572 7.17827C71.2881 7.17827 70.7043 7.34233 70.2058 7.67045C69.7072 7.99858 69.3194 8.48011 69.0424 9.11506C68.7697 9.75 68.6333 10.5298 68.6333 11.4545C68.6333 12.3793 68.7697 13.1591 69.0424 13.794C69.3194 14.429 69.7072 14.9105 70.2058 15.2386C70.7043 15.5668 71.2881 15.7308 71.9572 15.7308C72.6262 15.7308 73.21 15.5668 73.7086 15.2386C74.2072 14.9105 74.5928 14.429 74.8656 13.794C75.1425 13.1591 75.281 12.3793 75.281 11.4545ZM91.987 4.90909V18H89.5963L83.901 9.76065H83.8052V18H81.0374V4.90909H83.4664L89.1169 13.142H89.232V4.90909H91.987Z" fill="white"/>
<path d="M21.9123 5H13.9875C13.5748 5 13.2402 5.35775 13.2402 5.79905V5.84106C13.2402 6.28236 13.5748 6.64011 13.9875 6.64011H21.9123C22.325 6.64011 22.6596 6.28236 22.6596 5.84106V5.79905C22.6596 5.35775 22.325 5 21.9123 5Z" fill="white"/>
<path d="M20.7924 6.94557H13.6849C13.3066 6.94557 13 7.2735 13 7.67803V7.71654C13 8.12107 13.3066 8.449 13.6849 8.449H20.7924C21.1707 8.449 21.4774 8.12107 21.4774 7.71654V7.67803C21.4774 7.2735 21.1707 6.94557 20.7924 6.94557Z" fill="white"/>
<path d="M20.4936 8.75449H14.6745C14.3306 8.75449 14.0518 9.05261 14.0518 9.42035V9.45536C14.0518 9.82311 14.3306 10.1212 14.6745 10.1212H20.4936C20.8375 10.1212 21.1163 9.82311 21.1163 9.45536V9.42035C21.1163 9.05261 20.8375 8.75449 20.4936 8.75449Z" fill="white"/>
<path d="M20.9879 10.4267H15.9862C15.6767 10.4267 15.4258 10.695 15.4258 11.026V11.0575C15.4258 11.3885 15.6767 11.6568 15.9862 11.6568H20.9879C21.2974 11.6568 21.5483 11.3885 21.5483 11.0575V11.026C21.5483 10.695 21.2974 10.4267 20.9879 10.4267Z" fill="white"/>
<path d="M20.9237 11.9623H16.7394C16.4643 11.9623 16.2412 12.2008 16.2412 12.495V12.523C16.2412 12.8172 16.4643 13.0557 16.7394 13.0557H20.9237C21.1988 13.0557 21.4219 12.8172 21.4219 12.523V12.495C21.4219 12.2008 21.1988 11.9623 20.9237 11.9623Z" fill="white"/>
<path d="M19.3514 13.3612H16.4554C16.2147 13.3612 16.0195 13.5699 16.0195 13.8273V13.8518C16.0195 14.1092 16.2147 14.3179 16.4554 14.3179H19.3514C19.5921 14.3179 19.7873 14.1092 19.7873 13.8518V13.8273C19.7873 13.5699 19.5921 13.3612 19.3514 13.3612Z" fill="white"/>
<path d="M18.8492 14.6234H16.7706C16.5643 14.6234 16.397 14.8022 16.397 15.0229V15.0439C16.397 15.2646 16.5643 15.4434 16.7706 15.4434H18.8492C19.0555 15.4434 19.2227 15.2646 19.2227 15.0439V15.0229C19.2227 14.8022 19.0555 14.6234 18.8492 14.6234Z" fill="white"/>
<path d="M18.5579 15.7489H17.2967C17.1247 15.7489 16.9854 15.898 16.9854 16.0818V16.0993C16.9854 16.2832 17.1247 16.4323 17.2967 16.4323H18.5579C18.7299 16.4323 18.8692 16.2832 18.8692 16.0993V16.0818C18.8692 15.898 18.7299 15.7489 18.5579 15.7489Z" fill="white"/>
<path d="M18.3334 16.7377H17.7955C17.6579 16.7377 17.5464 16.857 17.5464 17.0041V17.0181C17.5464 17.1652 17.6579 17.2844 17.7955 17.2844H18.3334C18.471 17.2844 18.5825 17.1652 18.5825 17.0181V17.0041C18.5825 16.857 18.471 16.7377 18.3334 16.7377Z" fill="white"/>
<path d="M18.589 17.59H18.2561C18.1529 17.59 18.0693 17.6794 18.0693 17.7897V17.8002C18.0693 17.9105 18.1529 18 18.2561 18H18.589C18.6922 18 18.7758 17.9105 18.7758 17.8002V17.7897C18.7758 17.6794 18.6922 17.59 18.589 17.59Z" fill="white"/>
<path d="M22.659 5.79905C22.659 5.35775 22.3751 5 22.0248 5C21.6746 5 21.3906 5.35775 21.3906 5.79905V5.84106C21.3906 6.28236 21.6746 6.64011 22.0248 6.64011C22.3751 6.64011 22.659 6.28236 22.659 5.84106V5.79905Z" fill="white"/>
<path d="M14.7088 5.79905C14.7088 5.35775 14.4249 5 14.0746 5C13.7244 5 13.4404 5.35775 13.4404 5.79905V5.84106C13.4404 6.28236 13.7244 6.64011 14.0746 6.64011C14.4249 6.64011 14.7088 6.28236 14.7088 5.84106V5.79905Z" fill="white"/>
<path d="M13.9637 6.94557H13.6849C13.3066 6.94557 13 7.2735 13 7.67803V7.71654C13 8.12107 13.3066 8.449 13.6849 8.449H13.9637C14.342 8.449 14.6487 8.12107 14.6487 7.71654V7.67803C14.6487 7.2735 14.342 6.94557 13.9637 6.94557Z" fill="white"/>
<path d="M21.3425 7.74036C21.3425 7.33584 21.09 7.0079 20.7784 7.0079C20.4669 7.0079 20.2144 7.33584 20.2144 7.74036V7.77887C20.2144 8.1834 20.4669 8.51133 20.7784 8.51133C21.09 8.51133 21.3425 8.1834 21.3425 7.77887V7.74036Z" fill="white"/>
<path d="M15.6407 8.69536H15.1432C14.7993 8.69536 14.5205 8.99348 14.5205 9.36123V9.39625C14.5205 9.764 14.7993 10.0621 15.1432 10.0621H15.6407C15.9846 10.0621 16.2634 9.764 16.2634 9.39625V9.36123C16.2634 8.99348 15.9846 8.69536 15.6407 8.69536Z" fill="white"/>
<path d="M20.8034 9.42035C20.8034 9.05261 20.553 8.75449 20.2442 8.75449C19.9354 8.75449 19.6851 9.05261 19.6851 9.42035V9.45536C19.6851 9.82311 19.9354 10.1212 20.2442 10.1212C20.553 10.1212 20.8034 9.82311 20.8034 9.45536V9.42035Z" fill="white"/>
<path d="M19.05 10.4267H17.7123C17.4027 10.4267 17.1519 10.695 17.1519 11.026V11.0575C17.1519 11.3885 17.4027 11.6568 17.7123 11.6568H19.05C19.3595 11.6568 19.6104 11.3885 19.6104 11.0575V11.026C19.6104 10.695 19.3595 10.4267 19.05 10.4267Z" fill="white"/>
<path d="M19.0532 11.9623H18.4767C18.2016 11.9623 17.9785 12.2008 17.9785 12.495V12.523C17.9785 12.8172 18.2016 13.0557 18.4767 13.0557H19.0532C19.3284 13.0557 19.5513 12.8172 19.5513 12.523V12.495C19.5513 12.2008 19.3284 11.9623 19.0532 11.9623Z" fill="white"/>
<path d="M19.351 13.3612H18.8602C18.6194 13.3612 18.4243 13.5699 18.4243 13.8273V13.8518C18.4243 14.1092 18.6194 14.3179 18.8602 14.3179H19.351C19.5917 14.3179 19.7869 14.1092 19.7869 13.8518V13.8273C19.7869 13.5699 19.5917 13.3612 19.351 13.3612Z" fill="white"/>
<path d="M18.8493 14.6234H18.6446C18.4383 14.6234 18.271 14.8022 18.271 15.0229V15.0439C18.271 15.2646 18.4383 15.4434 18.6446 15.4434H18.8493C19.0557 15.4434 19.223 15.2646 19.223 15.0439V15.0229C19.223 14.8022 19.0557 14.6234 18.8493 14.6234Z" fill="white"/>
<path d="M18.8687 16.0818C18.8687 15.898 18.7383 15.7489 18.5774 15.7489C18.4166 15.7489 18.2861 15.898 18.2861 16.0818V16.0993C18.2861 16.2832 18.4166 16.4323 18.5774 16.4323C18.7383 16.4323 18.8687 16.2832 18.8687 16.0993V16.0818Z" fill="white"/>
<path d="M18.5839 17.0041C18.5839 16.857 18.5006 16.7377 18.3977 16.7377C18.2948 16.7377 18.2114 16.857 18.2114 17.0041V17.0181C18.2114 17.1652 18.2948 17.2844 18.3977 17.2844C18.5006 17.2844 18.5839 17.1652 18.5839 17.0181V17.0041Z" fill="white"/>
<path d="M18.775 17.7897C18.775 17.6794 18.6956 17.59 18.5975 17.59C18.4995 17.59 18.4199 17.6794 18.4199 17.7897V17.8002C18.4199 17.9105 18.4995 18 18.5975 18C18.6956 18 18.775 17.9105 18.775 17.8002V17.7897Z" fill="white"/>
</svg>
