<svg width="32" height="33" viewBox="0 0 32 33" fill="none" xmlns="http://www.w3.org/2000/svg">
<path d="M16.041 14.787C15.125 14.787 14.36 15.536 14.36 16.459C14.36 17.375 15.125 18.14 16.041 18.14C18.281 18.14 18.281 14.787 16.041 14.787ZM16.041 15.849C16.385 15.849 16.65 16.114 16.65 16.458C16.65 16.802 16.385 17.067 16.041 17.067C15.697 17.067 15.432 16.802 15.432 16.458C15.432 16.114 15.697 15.849 16.041 15.849ZM0.864 0.5C0.771 0.5 0.724 0.516 0.401 0.552C0.073 0.593 -0.036 0.984 0.041 1.396C0.114 1.812 0.136 1.672 0.302 1.912C0.469 2.151 5.937 7.432 8.77 10.197L3.749 15.344C2.082 17.052 1.202 19.683 0.688 22.588C0.172 25.495 0.041 28.713 0 31.636C0.00117398 31.84 0.0771638 32.0365 0.21356 32.1882C0.349957 32.3399 0.537277 32.4362 0.74 32.459C0.862503 32.4718 0.986303 32.4563 1.10192 32.4139C1.21753 32.3714 1.32189 32.303 1.407 32.214H1.416L9.697 23.719C15.057 28.683 15.188 30.495 22.088 31.812C24.995 32.323 28.213 32.459 31.136 32.5C31.3384 32.4994 31.5336 32.425 31.6851 32.2908C31.8366 32.1566 31.9339 31.9718 31.959 31.771L31.97 31.76C31.9738 31.7008 31.9701 31.6413 31.959 31.583C31.9376 31.3965 31.855 31.2224 31.724 31.088V31.079L23.219 22.803L28.063 17.834C28.126 17.777 28.183 17.714 28.24 17.657L28.251 17.646C29.918 15.938 30.807 13.318 31.323 10.413C31.834 7.501 31.959 4.288 32 1.365C31.9994 1.16263 31.925 0.967421 31.7908 0.815931C31.6566 0.664441 31.4718 0.567053 31.271 0.542L31.26 0.527C31.203 0.527 31.14 0.527 31.083 0.536C30.8968 0.555919 30.7237 0.640911 30.594 0.776H30.585L22.304 9.265L17.157 4.249C15.449 2.582 12.824 1.693 9.913 1.177C6.908 0.849 3.892 0.546 0.865 0.5H0.864ZM1.505 1.615C4.224 1.667 7.125 1.776 9.724 2.235C12.531 2.73 14.964 3.61 16.407 5.022H16.416L16.557 5.167C16.588 5.198 16.62 5.24 16.656 5.276C16.656 5.281 16.661 5.281 16.661 5.287L16.677 5.298L16.693 5.318V5.329C16.697 5.334 16.702 5.334 16.702 5.34C16.874 5.575 17.177 6.032 17.265 6.225C17.328 6.361 17.385 6.501 17.442 6.657C17.682 7.35 17.802 8.214 17.718 9.304V9.313C17.697 9.558 17.666 9.808 17.63 10.074C17.609 10.198 17.583 10.339 17.562 10.485C17.505 10.777 17.442 11.058 17.374 11.345C17.3367 11.5 17.2967 11.6544 17.254 11.808V11.819C17.082 12.439 16.854 13.122 16.573 13.846C16.505 14.029 16.437 14.205 16.36 14.398L16.161 14.851L15.817 14.918C14.65 12.71 13.374 11.185 12.234 10.309C11.655 9.872 11.119 9.59 10.598 9.476H10.593C10.078 9.363 9.526 9.44 9.166 9.809L9.213 9.909L9.64 9.59L1.505 1.615ZM30.885 2C30.838 4.719 30.729 7.625 30.265 10.224C29.77 13.031 28.896 15.464 27.478 16.912L27.333 17.047C27.293 17.0871 27.2513 17.1255 27.208 17.162L27.188 17.189H27.177C26.948 17.356 26.473 17.668 26.281 17.756C26.145 17.819 26 17.892 25.849 17.944H25.838C25.15 18.179 24.286 18.293 23.197 18.209C22.958 18.189 22.697 18.168 22.432 18.132L22.031 18.064H22.022C21.73 18.007 21.449 17.944 21.162 17.876H21.151C20.995 17.835 20.844 17.788 20.694 17.747C20.0061 17.5582 19.328 17.3356 18.662 17.08C18.479 17.007 18.293 16.928 18.099 16.851C17.959 16.794 17.818 16.736 17.678 16.674C17.694 16.59 17.574 16.805 17.678 16.674C17.6842 16.5438 17.6609 16.4139 17.61 16.294C19.793 15.133 21.318 13.871 22.189 12.737C22.632 12.158 22.918 11.612 23.032 11.096C23.152 10.581 23.069 10.019 22.699 9.659L22.71 9.67L22.857 10.139L30.885 2ZM18.531 7.093L21.912 10.385L21.927 10.406L21.948 10.421C22 10.473 22.052 10.573 21.989 10.864C21.958 10.995 21.797 11.219 21.713 11.385C21.604 11.609 21.557 11.786 21.349 12.057C20.62 12.989 19.193 14.145 17.166 15.229C17.229 15.084 17.286 14.942 17.343 14.802C17.42 14.609 17.494 14.411 17.567 14.223C17.859 13.463 18.103 12.75 18.286 12.087C18.415 11.619 18.526 11.144 18.614 10.671V10.66C18.635 10.515 18.671 10.373 18.693 10.228C18.729 9.947 18.76 9.671 18.781 9.389C18.849 8.488 18.688 7.796 18.53 7.097L18.531 7.093ZM10.364 10.516C12.489 11.473 13.875 13.745 14.735 15.339C14.588 15.271 14.448 15.219 14.303 15.156C14.1086 15.0806 13.9139 15.0059 13.719 14.932C13.0234 14.6562 12.3141 14.4163 11.594 14.213H11.589C11.422 14.166 11.261 14.125 11.105 14.084C10.788 14.005 10.47 13.943 10.173 13.885C10.028 13.864 9.876 13.844 9.73 13.817V13.806C9.45117 13.7692 9.1714 13.7399 8.891 13.718C7.984 13.65 7.287 13.806 6.588 13.963L9.885 10.587L9.921 10.546C9.973 10.494 10.073 10.442 10.364 10.51V10.516ZM8.807 14.787C9.047 14.803 9.303 14.834 9.568 14.875H9.579C9.703 14.896 9.839 14.916 9.979 14.943C10.255 14.995 10.536 15.058 10.839 15.131L11.074 15.188C11.151 15.208 11.225 15.224 11.303 15.245H11.307C11.938 15.421 12.61 15.645 13.339 15.926C13.522 15.994 13.708 16.067 13.896 16.139C14.057 16.207 14.219 16.28 14.38 16.348L14.401 16.701C12.213 17.862 10.682 19.129 9.812 20.264C9.369 20.843 9.083 21.379 8.969 21.9V21.911C8.849 22.426 8.932 22.978 9.302 23.338H9.291L9.04 22.89L1.124 30.983C1.176 28.27 1.275 25.374 1.733 22.775C2.228 19.968 3.108 17.54 4.52 16.092V16.083C4.551 16.046 4.587 16.02 4.624 15.983L4.665 15.947C4.70102 15.9065 4.74124 15.87 4.785 15.838H4.796C4.801 15.833 4.805 15.822 4.811 15.817C5.04 15.65 5.526 15.328 5.718 15.234C5.8633 15.1692 6.01108 15.1102 6.161 15.057C6.854 14.817 7.718 14.697 8.812 14.781L8.807 14.787ZM15.683 15.052C15.4197 15.1298 15.1799 15.2719 14.9853 15.4655C14.7906 15.6591 14.6472 15.8981 14.568 16.161L15.156 15.51L15.683 15.052ZM16.407 15.088L16.646 15.521L16.845 15.645L17.381 16.068C17.189 15.599 16.886 15.26 16.413 15.093L16.407 15.088ZM16.027 15.781C16.438 15.781 16.76 16.104 16.76 16.516C16.7615 16.6129 16.7436 16.7092 16.7073 16.7991C16.6711 16.8891 16.6172 16.9708 16.549 17.0397C16.4807 17.1085 16.3993 17.163 16.3097 17.2C16.2201 17.237 16.124 17.2557 16.027 17.255C15.9295 17.2563 15.8328 17.2382 15.7425 17.2015C15.6521 17.1649 15.5701 17.1105 15.5011 17.0416C15.4321 16.9727 15.3777 16.8907 15.3409 16.8005C15.3041 16.7102 15.2858 16.6135 15.287 16.516C15.287 16.104 15.61 15.781 16.027 15.781ZM14.625 16.932C14.812 17.417 15.136 17.745 15.62 17.927L15.303 17.558L15.031 17.246L14.625 16.932ZM17.375 16.979L16.995 17.136L16.918 17.375L16.537 17.807C16.922 17.62 17.198 17.375 17.376 16.984L17.375 16.979ZM17.276 17.661C17.416 17.718 17.557 17.792 17.697 17.849L18.281 18.073C19.03 18.364 19.745 18.598 20.406 18.781C20.578 18.833 20.745 18.869 20.895 18.912C21.218 18.989 21.53 19.063 21.832 19.12C21.972 19.14 22.124 19.161 22.275 19.188C22.562 19.224 22.843 19.26 23.114 19.287C24.021 19.355 24.713 19.194 25.415 19.036L22.119 22.417L22.098 22.432L22.078 22.453C22.03 22.505 21.926 22.552 21.645 22.494H21.636C21.349 22.426 20.927 22.223 20.443 21.843C19.511 21.114 18.355 19.687 17.276 17.66V17.661ZM14.833 17.781L14.656 18.202C14.579 18.395 14.505 18.593 14.427 18.781C14.1574 19.4777 13.9211 20.1868 13.719 20.906C13.672 21.078 13.631 21.245 13.594 21.401C13.517 21.718 13.443 22.036 13.386 22.333C13.361 22.484 13.339 22.63 13.318 22.781C13.277 23.057 13.246 23.333 13.219 23.614C13.151 24.521 13.312 25.218 13.464 25.915L10.088 22.619L10.068 22.587L10.047 22.578V22.567C9.995 22.515 9.948 22.431 10.011 22.144V22.135C10.079 21.848 10.287 21.426 10.662 20.942C11.386 20.01 12.813 18.854 14.834 17.775L14.833 17.781ZM16.219 18.125C17.375 20.292 18.636 21.822 19.766 22.693C20.345 23.136 20.881 23.421 21.402 23.536H21.413C21.928 23.651 22.474 23.573 22.84 23.203L22.793 23.11L22.386 23.47L30.506 31.391C27.787 31.339 24.875 31.23 22.277 30.766C19.47 30.271 17.037 29.397 15.594 27.985H15.585L15.512 27.913C15.501 27.902 15.496 27.886 15.485 27.87L15.444 27.834C15.413 27.798 15.371 27.755 15.34 27.714V27.703C15.335 27.698 15.319 27.688 15.319 27.683C15.1054 27.3935 14.9107 27.0905 14.736 26.776C14.6683 26.632 14.6092 26.484 14.559 26.333C14.319 25.64 14.199 24.781 14.283 23.688C14.304 23.448 14.335 23.197 14.371 22.927V22.916C14.392 22.792 14.418 22.656 14.439 22.516C14.491 22.24 14.554 21.959 14.627 21.656V21.645L14.69 21.421L14.747 21.193V21.182C14.919 20.557 15.142 19.885 15.428 19.155C15.496 18.972 15.575 18.786 15.652 18.598C15.715 18.442 15.783 18.291 15.851 18.135L16.22 18.114L16.219 18.125Z" fill="white"/>
</svg>
